<svg xmlns="http://www.w3.org/2000/svg" viewBox="0 0 110 60">
    <title>Laravel Forge CLI logo</title>
    <path fill="#18b69b" d="M72.9,1.6c0.3-0.9,0-1.6-0.8-1.6H9.9C9.1,0,8.4,0.6,8.2,1.4L6.7,7.2C6.6,7.8,6.9,8.3,7.3,8.6 c0.4,0.1,1.2,0.3,2.2,0.4c4.5,0.7,12.9,2.1,11.3,8.3l-0.4,2.1l-5.3,20.9l-0.5,2.1c-1.7,6.6-7.1,7.8-10.5,8.5c-0.5,0.1-1,0.2-1.4,0.3 c-0.6,0.2-1.1,0.8-1.2,1.5L0,58.5C-0.1,59.4,0.3,60,1.1,60h25.4c0.8,0,1.5-0.6,1.7-1.5L32.7,40c0.2-0.8,0.9-1.4,1.7-1.4h16.2 c0.7,0,1.5-0.7,1.7-1.5l2.4-9.9c0.2-0.8-0.3-1.4-1.1-1.4H37.4c-0.8,0-1.2-0.6-1.1-1.5l2.3-9c0.2-0.8,0.8-1.4,1.6-1.5h24.4 c0.8,0,1.2-0.5,1.7-1.4L72.9,1.6z M109,46H58.6c-0.7,0-1.2,0.5-1.3,1.1L55,58.4c-0.2,0.9,0.5,1.6,1.3,1.6h32.5 c9.8,0,18.6-8.2,20.9-12.1C110.3,46.9,109.9,46,109,46z"/>
</svg>
